<svg width="332" height="243" viewBox="0 0 332 243" fill="none" xmlns="http://www.w3.org/2000/svg">
<g filter="url(#filter0_d_202_227)">
<path d="M250.129 109.34C250.701 106.314 251 103.192 251 100C251 72.3858 228.614 50 201 50C178.586 50 159.617 64.7479 153.267 85.0691C146.771 79.42 138.285 76 129 76C110.261 76 94.7758 89.9304 92.3349 108C68.9388 108.089 50 127.083 50 150.5C50 173.972 69.0279 193 92.5 193H239.5C262.972 193 282 173.972 282 150.5C282 130.698 268.458 114.059 250.129 109.34Z" fill="#C4C4C4"/>
<path d="M247.673 108.876L247.238 111.177L249.506 111.761C266.757 116.203 279.5 131.866 279.5 150.5C279.5 172.591 261.591 190.5 239.5 190.5H92.5C70.4086 190.5 52.5 172.591 52.5 150.5C52.5 128.46 70.3247 110.584 92.3444 110.5L94.5211 110.492L94.8124 108.335C97.088 91.4884 111.529 78.5 129 78.5C137.659 78.5 145.568 81.6871 151.627 86.9556L154.513 89.4652L155.654 85.8147C161.687 66.5074 179.711 52.5 201 52.5C227.234 52.5 248.5 73.7665 248.5 100C248.5 103.036 248.216 106.002 247.673 108.876Z" stroke="#B4B4B4" stroke-width="5"/>
</g>
<defs>
<filter id="filter0_d_202_227" x="0" y="0" width="332" height="243" filterUnits="userSpaceOnUse" color-interpolation-filters="sRGB">
<feFlood flood-opacity="0" result="BackgroundImageFix"/>
<feColorMatrix in="SourceAlpha" type="matrix" values="0 0 0 0 0 0 0 0 0 0 0 0 0 0 0 0 0 0 127 0" result="hardAlpha"/>
<feOffset/>
<feGaussianBlur stdDeviation="25"/>
<feComposite in2="hardAlpha" operator="out"/>
<feColorMatrix type="matrix" values="0 0 0 0 0 0 0 0 0 0 0 0 0 0 0 0 0 0 0.25 0"/>
<feBlend mode="normal" in2="BackgroundImageFix" result="effect1_dropShadow_202_227"/>
<feBlend mode="normal" in="SourceGraphic" in2="effect1_dropShadow_202_227" result="shape"/>
</filter>
</defs>
</svg>
