<svg width="395" height="224" viewBox="0 0 395 224" fill="none" xmlns="http://www.w3.org/2000/svg">
<path d="M0 148.055L105.101 153.808V60.6028L0 54.8493V148.055Z" fill="#C08B6B"/>
<path d="M105.101 153.808L237.696 54.8493V12.6575L105.101 60.6028V153.808Z" fill="#544235"/>
<path d="M0 54.8493L105.101 60.6028L237.696 12.6575L161.132 12.6576L0 54.8493Z" fill="#B8B8B2"/>
<path d="M130.159 2.66106L196.63 4.21918V23.0137L130.159 20.6885V2.66106Z" fill="#CC7D44"/>
<path d="M151.04 0L214.727 1.15068L196.63 4.21918L130.159 2.66106L151.04 0Z" fill="#B8B8B2"/>
<path d="M196.63 4.21918L214.727 1.15068V16.8767L196.63 23.0137V4.21918Z" fill="#B56747"/>
<path d="M67.5154 20.3287L123.546 22.2465V41.4246L67.5154 38.3561V20.3287Z" fill="#CC7D44"/>
<path d="M92.9207 16.8767L141.991 18.0274L123.546 22.2465L67.5154 20.3287L92.9207 16.8767Z" fill="#B8B8B2"/>
<path d="M123.546 22.2465L141.991 18.0274V34.137L123.546 41.4246V22.2465Z" fill="#B56747"/>
<path d="M160.784 82.4657L312.868 93.589L314.26 130.027L160.784 115.452V82.4657Z" fill="#1B201A"/>
<path d="M222.035 53.6986L264.493 54.8493L310.78 29.9178L394.304 33.3698L366.811 57.5342L359.154 56.7671L312.868 93.589L160.784 82.4657L222.035 53.6986Z" fill="#B8B8B2"/>
<path d="M312.868 93.589L359.154 56.7671L358.11 98.9589L317.74 131.178L314.26 130.027L312.868 93.589Z" fill="#B56747"/>
<path d="M359.154 56.7671L366.811 57.5342V98.9589H358.11L359.154 56.7671Z" fill="#C08B6B"/>
<path d="M366.811 57.5342L394.304 33.3698V74.4109L366.811 98.9589V57.5342Z" fill="#544235"/>
<path d="M110.46 180.657L120.414 181.808V193.315L110.46 198.301V180.657Z" fill="#0A0605"/>
<path d="M120.414 181.808L148.256 182.575L148.952 196.767L120.414 193.315V181.808Z" fill="#2D1014"/>
<path d="M77.9559 179.123L175.401 189.479V206.356L146.863 202.904V186.446L110.67 182.6V198.301L77.9559 193.699V179.123Z" fill="#68341F"/>
<path d="M175.401 189.479L203.59 182.959V200.219L175.401 206.356V189.479Z" fill="#221411"/>
<path d="M203.59 182.959L225.863 174.137V199.068L203.59 200.219V182.959Z" fill="#30180C"/>
<g filter="url(#filter0_i_400_913)">
<path d="M48.7225 175.671H51.5066L51.5067 207.89L48.7226 207.52L48.7225 175.671Z" fill="#BBC5C4"/>
<path d="M76.564 177.972H78.652L78.6521 197.918L76.564 197.688L76.564 177.972Z" fill="#BBC5C4"/>
<path d="M100.925 181.041H103.709L103.709 201.753L100.925 201.515L100.925 181.041Z" fill="#BBC5C4"/>
<path d="M140.599 184.877H143.383L143.383 207.123L140.599 206.867L140.599 184.877Z" fill="#BBC5C4"/>
<path d="M166.353 187.945H169.833L169.833 210.959L166.353 210.694L166.353 187.945Z" fill="#BBC5C4"/>
<path d="M196.282 191.014H199.762L199.762 224L196.282 223.621L196.282 191.014Z" fill="#BBC5C4"/>
</g>
<path d="M169.833 85.5343L295.467 93.2055L199.29 181.041L46.2864 166.849L169.833 85.5343Z" fill="#C2A8A8"/>
<path d="M295.467 93.2055H320.524V132.329L311.128 131.562L225.863 199.069V174.137L199.29 192.164V181.041L295.467 93.2055Z" fill="#544235"/>
<path d="M46.2864 166.849L199.29 181.041V192.164L46.2864 176.055V166.849Z" fill="#C08B6B"/>
<path d="M205.678 87.0685L320.524 93.2055H295.467L169.833 85.5343L205.678 87.0685Z" fill="#747879"/>
<path d="M169.833 85.5343L295.467 93.2055L199.29 181.041L46.2864 166.849L169.833 85.5343Z" fill="#C8C8C2"/>
<g filter="url(#filter1_i_400_913)">
<path fill-rule="evenodd" clip-rule="evenodd" d="M122.992 130.774L135.105 131.973L147.073 133.158L160.001 134.437L171.839 135.609L183.976 136.81L196.228 138.023L209.127 139.3L221.915 140.565L234.71 141.832L199.001 174.83L185.312 173.424L171.622 172.018L158.638 170.685L144.955 169.28L132.51 168.002L118.998 166.614L105.131 165.19L91.6193 163.802L79.1744 162.524L65.8041 161.151L110.971 129.584L122.992 130.774Z" fill="#577EA4"/>
<path d="M157.618 96.9825L110.971 129.584L122.992 130.774L168.383 97.8841L157.618 96.9825Z" fill="#577EA4"/>
<path d="M180.313 98.8832L168.383 97.8841L122.992 130.774L135.105 131.973L180.313 98.8832Z" fill="#577EA4"/>
<path d="M190.801 99.7615L180.313 98.8832L135.105 131.973L147.073 133.158L190.801 99.7615Z" fill="#577EA4"/>
<path d="M202.897 100.775L190.801 99.7615L147.073 133.158L160.001 134.437L202.897 100.775Z" fill="#577EA4"/>
<path d="M213.096 101.629L202.897 100.775L160.001 134.437L171.839 135.609L213.096 101.629Z" fill="#577EA4"/>
<path d="M225.053 102.63L213.096 101.629L171.839 135.609L183.976 136.81L225.053 102.63Z" fill="#577EA4"/>
<path d="M235.913 103.54L225.053 102.63L183.976 136.81L196.228 138.023L235.913 103.54Z" fill="#577EA4"/>
<path d="M248.873 104.625L235.913 103.54L196.228 138.023L209.127 139.3L248.873 104.625Z" fill="#577EA4"/>
<path d="M260.835 105.627L248.873 104.625L209.127 139.3L221.915 140.565L260.835 105.627Z" fill="#577EA4"/>
<path d="M234.71 141.832L272.805 106.629L260.835 105.627L221.915 140.565L234.71 141.832Z" fill="#577EA4"/>
<path d="M282.561 97.6142L270.648 96.8183L260.835 105.627L272.805 106.629L282.561 97.6142Z" fill="#577EA4"/>
<path d="M270.648 96.8183L258.734 96.0223L248.873 104.625L260.835 105.627L270.648 96.8183Z" fill="#577EA4"/>
<path d="M258.734 96.0223L245.576 95.1431L235.913 103.54L248.873 104.625L258.734 96.0223Z" fill="#577EA4"/>
<path d="M245.576 95.1431L234.908 94.4303L225.053 102.63L235.913 103.54L245.576 95.1431Z" fill="#577EA4"/>
<path d="M234.908 94.4303L222.816 93.6225L213.096 101.629L225.053 102.63L234.908 94.4303Z" fill="#577EA4"/>
<path d="M212.859 92.9572L200.768 92.1493L190.801 99.7615L202.897 100.775L212.859 92.9572Z" fill="#577EA4"/>
<path d="M222.816 93.6225L212.859 92.9572L202.897 100.775L213.096 101.629L222.816 93.6225Z" fill="#577EA4"/>
<path d="M200.768 92.1493L190.455 91.4603L180.313 98.8832L190.801 99.7615L200.768 92.1493Z" fill="#577EA4"/>
<path d="M190.455 91.4603L178.364 90.6524L168.383 97.8841L180.313 98.8832L190.455 91.4603Z" fill="#577EA4"/>
<path d="M178.364 90.6524L167.695 89.9396L157.618 96.9825L168.383 97.8841L178.364 90.6524Z" fill="#577EA4"/>
</g>
<mask id="mask0_400_913" style="mask-type:alpha" maskUnits="userSpaceOnUse" x="65" y="89" width="218" height="86">
<path fill-rule="evenodd" clip-rule="evenodd" d="M122.992 130.774L135.105 131.973L147.073 133.158L160.001 134.437L171.839 135.609L183.976 136.81L196.228 138.023L209.127 139.299L221.915 140.565L234.71 141.832L199.001 174.83L185.311 173.424L171.622 172.018L158.638 170.685L144.955 169.279L132.51 168.001L118.998 166.614L105.131 165.19L91.6193 163.802L79.1744 162.524L65.8041 161.151L110.971 129.584L122.992 130.774Z" fill="#577EA4"/>
<path d="M157.618 96.9825L110.971 129.584L122.992 130.774L168.383 97.884L157.618 96.9825Z" fill="#577EA4"/>
<path d="M180.313 98.8832L168.383 97.884L122.992 130.774L135.105 131.973L180.313 98.8832Z" fill="#577EA4"/>
<path d="M190.801 99.7615L180.313 98.8832L135.105 131.973L147.073 133.158L190.801 99.7615Z" fill="#577EA4"/>
<path d="M202.897 100.775L190.801 99.7615L147.073 133.158L160.001 134.437L202.897 100.775Z" fill="#577EA4"/>
<path d="M213.096 101.629L202.897 100.775L160.001 134.437L171.839 135.609L213.096 101.629Z" fill="#577EA4"/>
<path d="M225.053 102.63L213.096 101.629L171.839 135.609L183.976 136.81L225.053 102.63Z" fill="#577EA4"/>
<path d="M235.913 103.54L225.053 102.63L183.976 136.81L196.228 138.023L235.913 103.54Z" fill="#577EA4"/>
<path d="M248.873 104.625L235.913 103.54L196.228 138.023L209.127 139.299L248.873 104.625Z" fill="#577EA4"/>
<path d="M260.835 105.627L248.873 104.625L209.127 139.299L221.915 140.565L260.835 105.627Z" fill="#577EA4"/>
<path d="M234.71 141.832L272.805 106.629L260.835 105.627L221.915 140.565L234.71 141.832Z" fill="#577EA4"/>
<path d="M282.561 97.6142L270.647 96.8182L260.835 105.627L272.805 106.629L282.561 97.6142Z" fill="#577EA4"/>
<path d="M270.647 96.8182L258.734 96.0222L248.873 104.625L260.835 105.627L270.647 96.8182Z" fill="#577EA4"/>
<path d="M258.734 96.0222L245.576 95.1431L235.913 103.54L248.873 104.625L258.734 96.0222Z" fill="#577EA4"/>
<path d="M245.576 95.1431L234.908 94.4303L225.053 102.63L235.913 103.54L245.576 95.1431Z" fill="#577EA4"/>
<path d="M234.908 94.4303L222.816 93.6224L213.096 101.629L225.053 102.63L234.908 94.4303Z" fill="#577EA4"/>
<path d="M212.859 92.9571L200.768 92.1493L190.801 99.7615L202.897 100.775L212.859 92.9571Z" fill="#577EA4"/>
<path d="M222.816 93.6224L212.859 92.9571L202.897 100.775L213.096 101.629L222.816 93.6224Z" fill="#577EA4"/>
<path d="M200.768 92.1493L190.455 91.4602L180.313 98.8832L190.801 99.7615L200.768 92.1493Z" fill="#577EA4"/>
<path d="M190.455 91.4602L178.364 90.6524L168.383 97.884L180.313 98.8832L190.455 91.4602Z" fill="#577EA4"/>
<path d="M178.364 90.6524L167.695 89.9395L157.618 96.9825L168.383 97.884L178.364 90.6524Z" fill="#577EA4"/>
</mask>
<g mask="url(#mask0_400_913)">
<g filter="url(#filter2_d_400_913)">
<path fill-rule="evenodd" clip-rule="evenodd" d="M167.695 89.9396L65.8041 161.151L199.001 174.83L282.561 97.6142L167.695 89.9396ZM188.916 92.126L177.973 91.3948L169.427 97.5869L180.221 98.4908L188.916 92.126ZM179.277 99.1811L168.475 98.2765L124.017 130.491L135.014 131.579L179.277 99.1811ZM136.123 131.689L180.406 99.2757L189.796 100.062L146.978 132.763L136.123 131.689ZM134.088 132.257L123.082 131.168L80.6605 161.906L91.9907 163.07L134.088 132.257ZM93.0941 163.183L135.196 132.367L146.086 133.445L105.482 164.455L93.0941 163.183ZM106.559 164.566L119.336 165.878L159.032 134.726L147.167 133.552L106.559 164.566ZM148.06 132.87L159.904 134.043L201.912 101.077L190.897 100.154L148.06 132.87ZM191.805 99.461L202.798 100.382L211.404 93.6285L200.404 92.8936L191.805 99.461ZM199.281 92.8185L190.069 92.203L181.35 98.5853L190.704 99.3688L199.281 92.8185ZM212.509 93.7024L203.882 100.472L212.992 101.235L221.416 94.2974L212.509 93.7024ZM222.491 94.3693L214.047 101.324L224.948 102.237L233.518 95.106L222.491 94.3693ZM234.587 95.1775L225.998 102.325L235.804 103.146L244.233 95.8219L234.587 95.1775ZM245.277 95.8917L236.83 103.232L248.764 104.231L257.395 96.7013L245.277 95.8917ZM258.437 96.7709L249.787 104.317L260.723 105.233L269.338 97.4993L258.437 96.7709ZM270.364 97.5678L261.731 105.317L272.193 106.193L280.775 98.2634L270.364 97.5678ZM271.43 106.899L260.947 106.021L222.798 140.268L234.108 141.387L271.43 106.899ZM233.355 142.083L222.025 140.961L186.576 172.784L198.776 174.036L233.355 142.083ZM185.587 172.682L221.032 140.863L209.234 139.695L172.914 171.38L185.587 172.682ZM171.911 171.277L208.227 139.596L196.334 138.419L159.934 170.047L171.911 171.277ZM158.929 169.944L195.325 138.319L184.078 137.205L146.293 168.647L158.929 169.944ZM145.265 168.541L183.046 137.103L171.941 136.004L133.858 167.37L145.265 168.541ZM132.825 167.263L170.903 135.901L160.098 134.832L120.397 165.987L132.825 167.263ZM160.97 134.148L171.737 135.214L212.144 101.934L202.997 101.168L160.97 134.148ZM213.2 102.022L172.775 135.316L183.873 136.415L224.108 102.936L213.2 102.022ZM225.158 103.024L184.906 136.517L196.121 137.627L234.997 103.848L225.158 103.024ZM236.022 103.933L197.13 137.727L209.019 138.904L247.959 104.933L236.022 103.933ZM248.982 105.019L210.027 139.004L221.805 140.169L259.939 105.936L248.982 105.019ZM79.5508 161.792L121.967 131.058L111.626 130.034L67.8985 160.596L79.5508 161.792ZM112.592 129.36L122.902 130.38L167.34 98.1814L158.287 97.4232L112.592 129.36ZM159.27 96.7362L168.291 97.4917L176.813 91.3173L167.878 90.7203L159.27 96.7362Z" fill="#435F7C"/>
</g>
</g>
<defs>
<filter id="filter0_i_400_913" x="46.7225" y="175.671" width="153.04" height="48.3288" filterUnits="userSpaceOnUse" color-interpolation-filters="sRGB">
<feFlood flood-opacity="0" result="BackgroundImageFix"/>
<feBlend mode="normal" in="SourceGraphic" in2="BackgroundImageFix" result="shape"/>
<feColorMatrix in="SourceAlpha" type="matrix" values="0 0 0 0 0 0 0 0 0 0 0 0 0 0 0 0 0 0 127 0" result="hardAlpha"/>
<feOffset dx="-2"/>
<feGaussianBlur stdDeviation="1"/>
<feComposite in2="hardAlpha" operator="arithmetic" k2="-1" k3="1"/>
<feColorMatrix type="matrix" values="0 0 0 0 0 0 0 0 0 0 0 0 0 0 0 0 0 0 0.25 0"/>
<feBlend mode="normal" in2="shape" result="effect1_innerShadow_400_913"/>
</filter>
<filter id="filter1_i_400_913" x="65.8041" y="89.9396" width="216.757" height="84.8903" filterUnits="userSpaceOnUse" color-interpolation-filters="sRGB">
<feFlood flood-opacity="0" result="BackgroundImageFix"/>
<feBlend mode="normal" in="SourceGraphic" in2="BackgroundImageFix" result="shape"/>
<feColorMatrix in="SourceAlpha" type="matrix" values="0 0 0 0 0 0 0 0 0 0 0 0 0 0 0 0 0 0 127 0" result="hardAlpha"/>
<feOffset/>
<feGaussianBlur stdDeviation="40"/>
<feComposite in2="hardAlpha" operator="arithmetic" k2="-1" k3="1"/>
<feColorMatrix type="matrix" values="0 0 0 0 0.517917 0 0 0 0 0.738267 0 0 0 0 0.941667 0 0 0 0.44 0"/>
<feBlend mode="normal" in2="shape" result="effect1_innerShadow_400_913"/>
</filter>
<filter id="filter2_d_400_913" x="61.8041" y="85.9396" width="224.757" height="92.8903" filterUnits="userSpaceOnUse" color-interpolation-filters="sRGB">
<feFlood flood-opacity="0" result="BackgroundImageFix"/>
<feColorMatrix in="SourceAlpha" type="matrix" values="0 0 0 0 0 0 0 0 0 0 0 0 0 0 0 0 0 0 127 0" result="hardAlpha"/>
<feOffset/>
<feGaussianBlur stdDeviation="2"/>
<feComposite in2="hardAlpha" operator="out"/>
<feColorMatrix type="matrix" values="0 0 0 0 0 0 0 0 0 0 0 0 0 0 0 0 0 0 0.5 0"/>
<feBlend mode="normal" in2="BackgroundImageFix" result="effect1_dropShadow_400_913"/>
<feBlend mode="normal" in="SourceGraphic" in2="effect1_dropShadow_400_913" result="shape"/>
</filter>
</defs>
</svg>

