<svg width="332" height="243" viewBox="0 0 332 243" fill="none" xmlns="http://www.w3.org/2000/svg">
<g filter="url(#filter0_d_202_227)">
<path d="M250.129 109.34C250.701 106.314 251 103.192 251 100C251 72.3858 228.614 50 201 50C178.586 50 159.617 64.7479 153.267 85.0691C146.771 79.42 138.285 76 129 76C110.261 76 94.7758 89.9304 92.3349 108C68.9388 108.089 50 127.083 50 150.5C50 173.972 69.0279 193 92.5 193H239.5C262.972 193 282 173.972 282 150.5C282 130.698 268.458 114.059 250.129 109.34Z" fill="#C4C4C4"/>
<path d="M247.673 108.876L247.238 111.177L249.506 111.761C266.757 116.203 279.5 131.866 279.5 150.5C279.5 172.591 261.591 190.5 239.5 190.5H92.5C70.4086 190.5 52.5 172.591 52.5 150.5C52.5 128.46 70.3247 110.584 92.3444 110.5L94.5211 110.492L94.8124 108.335C97.088 91.4884 111.529 78.5 129 78.5C137.659 78.5 145.568 81.6871 151.627 86.9556L154.513 89.4652L155.654 85.8147C161.687 66.5074 179.711 52.5 201 52.5C227.234 52.5 248.5 73.7665 248.5 100C248.5 103.036 248.216 106.002 247.673 108.876Z" stroke="#B4B4B4" stroke-width="5"/>
</g>
<path d="M115.633 147.164V146.789H118.914V147.164C118.914 149.32 119.57 150.953 120.883 152.062C122.195 153.156 123.844 153.703 125.828 153.703C127.922 153.703 129.594 153.141 130.844 152.016C132.109 150.891 132.742 149.133 132.742 146.742C132.742 144.336 132.016 142.547 130.562 141.375C129.109 140.188 127.234 139.594 124.938 139.594H121.727V136.828H124.727C126.789 136.828 128.445 136.305 129.695 135.258C130.961 134.195 131.594 132.5 131.594 130.172C131.594 128.156 131.07 126.656 130.023 125.672C128.992 124.672 127.594 124.172 125.828 124.172C123.922 124.172 122.438 124.688 121.375 125.719C120.328 126.75 119.805 128.227 119.805 130.148V130.523H116.523V130.148C116.523 127.445 117.414 125.297 119.195 123.703C120.992 122.109 123.203 121.312 125.828 121.312C128.453 121.312 130.625 122.086 132.344 123.633C134.062 125.164 134.922 127.297 134.922 130.031C134.922 132.047 134.484 133.727 133.609 135.07C132.734 136.414 131.484 137.398 129.859 138.023V138.117C131.641 138.555 133.125 139.508 134.312 140.977C135.5 142.43 136.094 144.367 136.094 146.789C136.094 149.789 135.141 152.172 133.234 153.938C131.344 155.688 128.875 156.562 125.828 156.562C122.75 156.562 120.281 155.703 118.422 153.984C116.562 152.266 115.633 149.992 115.633 147.164ZM150.93 156V121.875H154.258V138.984L168.508 121.875H172.398L154.258 143.367V156H150.93ZM169.469 156L156.836 138.188L158.969 135.727L173.523 156H169.469ZM181.117 156.188L173.148 121.875H176.5L182.57 148.875C182.664 149.297 182.734 149.703 182.781 150.094C182.844 150.469 182.906 150.93 182.969 151.477H183.133C183.211 150.945 183.281 150.484 183.344 150.094C183.422 149.703 183.508 149.297 183.602 148.875L190.258 121.875H193.984L200.781 148.875C200.891 149.297 200.969 149.703 201.016 150.094C201.078 150.484 201.148 150.953 201.227 151.5H201.367C201.43 150.938 201.492 150.461 201.555 150.07C201.617 149.68 201.688 149.281 201.766 148.875L207.766 121.875H210.953L202.984 156.188H199.492L192.648 128.766C192.555 128.391 192.461 127.977 192.367 127.523C192.289 127.055 192.211 126.555 192.133 126.023H191.992C191.914 126.555 191.828 127.055 191.734 127.523C191.641 127.977 191.547 128.391 191.453 128.766L184.609 156.188H181.117Z" fill="black"/>
<defs>
<filter id="filter0_d_202_227" x="0" y="0" width="332" height="243" filterUnits="userSpaceOnUse" color-interpolation-filters="sRGB">
<feFlood flood-opacity="0" result="BackgroundImageFix"/>
<feColorMatrix in="SourceAlpha" type="matrix" values="0 0 0 0 0 0 0 0 0 0 0 0 0 0 0 0 0 0 127 0" result="hardAlpha"/>
<feOffset/>
<feGaussianBlur stdDeviation="25"/>
<feComposite in2="hardAlpha" operator="out"/>
<feColorMatrix type="matrix" values="0 0 0 0 0 0 0 0 0 0 0 0 0 0 0 0 0 0 0.25 0"/>
<feBlend mode="normal" in2="BackgroundImageFix" result="effect1_dropShadow_202_227"/>
<feBlend mode="normal" in="SourceGraphic" in2="effect1_dropShadow_202_227" result="shape"/>
</filter>
</defs>
</svg>
