<svg width="351" height="330" viewBox="0 0 351 330" fill="none" xmlns="http://www.w3.org/2000/svg">
<g filter="url(#filter0_d_382_711)">
<circle cx="164.5" cy="143.5" r="83.5" fill="#FFFEDB"/>
<circle cx="164.5" cy="143.5" r="83.5" stroke="#FFF6A0" stroke-width="5"/>
</g>
<path d="M99.6562 157V154.852L109.129 143.445C110.327 142.026 111.297 140.685 112.039 139.422C112.794 138.159 113.172 136.876 113.172 135.574C113.172 134.012 112.697 132.788 111.746 131.902C110.809 131.004 109.585 130.555 108.074 130.555C106.538 130.555 105.236 131.023 104.168 131.961C103.1 132.898 102.566 134.383 102.566 136.414V136.707H99.6758V136.414C99.6758 133.823 100.483 131.785 102.098 130.301C103.712 128.816 105.717 128.074 108.113 128.074C110.444 128.074 112.345 128.764 113.816 130.145C115.301 131.525 116.043 133.27 116.043 135.379C116.043 137.072 115.6 138.634 114.715 140.066C113.842 141.499 112.664 143.107 111.18 144.891L103.211 154.461H116.766V157H99.6562ZM119.578 157V154.852L129.051 143.445C130.249 142.026 131.219 140.685 131.961 139.422C132.716 138.159 133.094 136.876 133.094 135.574C133.094 134.012 132.618 132.788 131.668 131.902C130.73 131.004 129.507 130.555 127.996 130.555C126.46 130.555 125.158 131.023 124.09 131.961C123.022 132.898 122.488 134.383 122.488 136.414V136.707H119.598V136.414C119.598 133.823 120.405 131.785 122.02 130.301C123.634 128.816 125.639 128.074 128.035 128.074C130.366 128.074 132.267 128.764 133.738 130.145C135.223 131.525 135.965 133.27 135.965 135.379C135.965 137.072 135.522 138.634 134.637 140.066C133.764 141.499 132.586 143.107 131.102 144.891L123.133 154.461H136.688V157H119.578ZM140.438 160.496C140.945 159.806 141.342 159.096 141.629 158.367C141.928 157.651 142.078 156.811 142.078 155.848V153.367H144.832V155.848C144.832 157.033 144.591 158.1 144.109 159.051C143.628 160.001 142.983 160.841 142.176 161.57L140.438 160.496ZM149.812 149.812V149.52H152.625V149.812C152.625 151.492 153.133 152.781 154.148 153.68C155.164 154.565 156.551 155.008 158.309 155.008C160.053 155.008 161.46 154.415 162.527 153.23C163.608 152.046 164.148 150.275 164.148 147.918C164.148 145.561 163.621 143.862 162.566 142.82C161.512 141.766 160.171 141.238 158.543 141.238C157.332 141.238 156.251 141.473 155.301 141.941C154.35 142.41 153.562 143.003 152.938 143.719L150.789 142.879L152.215 128.562H165.652V131.121H154.617L153.66 140.535C154.246 140.04 155.008 139.617 155.945 139.266C156.896 138.914 157.924 138.738 159.031 138.738C161.219 138.738 163.1 139.5 164.676 141.023C166.251 142.547 167.039 144.845 167.039 147.918C167.039 150.991 166.219 153.354 164.578 155.008C162.938 156.661 160.848 157.488 158.309 157.488C155.665 157.488 153.589 156.798 152.078 155.418C150.568 154.025 149.812 152.156 149.812 149.812ZM179.617 157V128.562H182.508V142.781L194.48 128.562H197.879L182.508 146.57V157H179.617ZM195.281 157L184.695 142.156L186.551 140.047L198.816 157H195.281ZM205.32 157.156L198.641 128.562H201.551L206.59 150.887C206.668 151.238 206.727 151.577 206.766 151.902C206.818 152.215 206.87 152.592 206.922 153.035H207.078C207.13 152.592 207.182 152.215 207.234 151.902C207.299 151.577 207.378 151.238 207.469 150.887L212.977 128.562H216.16L221.805 150.887C221.896 151.238 221.961 151.577 222 151.902C222.052 152.215 222.111 152.599 222.176 153.055H222.312C222.352 152.599 222.397 152.215 222.449 151.902C222.501 151.577 222.566 151.238 222.645 150.887L227.605 128.562H230.379L223.699 157.156H220.711L215.027 134.52C214.949 134.194 214.871 133.842 214.793 133.465C214.715 133.074 214.643 132.664 214.578 132.234H214.461C214.396 132.664 214.324 133.074 214.246 133.465C214.168 133.842 214.09 134.194 214.012 134.52L208.328 157.156H205.32Z" fill="black"/>
<defs>
<filter id="filter0_d_382_711" x="-21.5" y="-42.5" width="372" height="372" filterUnits="userSpaceOnUse" color-interpolation-filters="sRGB">
<feFlood flood-opacity="0" result="BackgroundImageFix"/>
<feColorMatrix in="SourceAlpha" type="matrix" values="0 0 0 0 0 0 0 0 0 0 0 0 0 0 0 0 0 0 127 0" result="hardAlpha"/>
<feMorphology radius="50" operator="dilate" in="SourceAlpha" result="effect1_dropShadow_382_711"/>
<feOffset/>
<feGaussianBlur stdDeviation="25"/>
<feComposite in2="hardAlpha" operator="out"/>
<feColorMatrix type="matrix" values="0 0 0 0 1 0 0 0 0 0.959167 0 0 0 0 0.591667 0 0 0 0.36 0"/>
<feBlend mode="normal" in2="BackgroundImageFix" result="effect1_dropShadow_382_711"/>
<feBlend mode="normal" in="SourceGraphic" in2="effect1_dropShadow_382_711" result="shape"/>
</filter>
</defs>
</svg>
